<?xml version="1.0" encoding="UTF-8"?>
<svg id="_x2018_ëîé_x5F_1" xmlns="http://www.w3.org/2000/svg" version="1.1" viewBox="0 0 4000 4000">
  <!-- Generator: Adobe Illustrator 29.4.0, SVG Export Plug-In . SVG Version: 2.1.0 Build 152)  -->
  <defs>
    <style>
      .st0 {
        fill: #fff;
      }

      .st1 {
        fill: #f4e8b7;
      }

      .st2 {
        fill: #ea620d;
      }

      .st3 {
        fill: #293c51;
        fill-rule: evenodd;
      }

      .st4 {
        fill: #fab700;
      }
    </style>
  </defs>
  <rect class="st0" width="4000" height="4000"/>
  <g>
    <path class="st3" d="M1137.06,2613.35c11.78-31.15.76-89.28-32.29-102.57-36.09-14.44-55.09-69.52-31.15-100.67,23.93-31.15,26.21-45.59,28.87-62.3,2.28-16.72,16.71-38.37,35.71-38.37s38.37-12.16,36.09-41.03c-2.28-28.49,16.72-71.8,31.15-100.67,14.44-28.49,19.38-64.58,26.59-93.45s21.27-57.37,45.59-83.96c23.93-26.21,33.43-86.24,4.56-107.89-28.87-21.65-95.74-52.81-98.4-141.32,2.66-26.59-4.56-83.96-26.21-107.89-21.65-24.31-40.65-67.24-40.65-136.76v-966.47h304.3v345.33c0,55.08,19.38,76.74,43.31,95.73,23.93,19.38,19,33.81,36.09,38.37,16.72,4.94,31.15,23.93,35.71,41.03,4.94,16.72,14.44,26.21,23.93,38.37,9.88,11.78-2.28,31.15-9.5,40.65s2.28,62.3,16.72,76.74c14.44,14.44,132.2,126.89,158.42,160.7,26.21,33.43,62.3,76.74,76.74,110.17,14.44,33.81,62.3,52.81,83.96,52.81s76.74,4.94,60.02,52.81c-16.72,47.87-26.59,112.83-38.37,139.04-12.16,26.59-12.16,62.3,7.22,83.96,18.99,21.65,9.5,50.53-2.66,64.96-11.78,14.06-35.71,90.8,14.44,124.61,50.53,33.43,72.18,4.56,83.96-14.44,12.16-19.38,52.81-45.59,74.46-4.94,21.65,41.03,38.37,93.46,47.87,120.05,6.08,17.09,13.68,36.47,26.21,54.71-44.45-6.46-90.04-9.5-136.38-9.5-395.1,0-737.39,223.38-907.96,550.85,4.18-30.01,10.64-57.75,18.23-71.04,1.14-1.9,2.28-4.18,2.66-6.46.38-.38.76-.76.76-1.14Z"/>
    <path class="st3" d="M2937.03,2527.49v175.51c-53.57-106.37-125.37-202.11-211.22-282.27,14.06-1.52,25.83-3.42,31.15-6.08,19.38-9.5,33.81-18.99,31.15-35.71-2.28-16.72,41.03-52.8,62.68-19.37,21.27,33.81,35.71,67.24,50.15,74.46,14.44,7.22,36.09,43.31,36.09,93.46Z"/>
    <path class="st2" d="M2937.03,2703.01v650.39l-110.55-41.03-72.94-15.96-1.9-1.9c7.6-42.17,11.4-85.48,11.4-129.55,0-408.39-331.27-739.66-739.66-739.66s-739.67,331.27-739.67,739.66c0,26.21,1.52,52.43,4.18,77.88l-61.16,22.41-117.01,86.24v-562.63c-1.52-23.17.76-61.54,5.7-96.87,170.57-327.48,512.87-550.85,907.96-550.85,46.35,0,91.94,3.04,136.38,9.5,6.46,9.5,14.44,18.61,24.31,26.97,15.96,13.68,21.65,28.11,22.03,41.03.38,9.5-2.28,18.61-5.32,25.83-7.22,16.72,9.5,52.81,47.87,55.09,38.37,2.66,71.8,28.87,76.74,57.75,4.94,28.87,21.65,86.24,43.31,107.89,21.65,21.65,42.93,21.65,45.59-2.28,2.28-23.93,38.37-38.37,64.58-21.65,26.59,16.72,55.09,9.5,67.24-4.94,11.78-14.44,52.8-16.72,74.46-14.44,10.64,1.14,39.89,1.9,68.76,1.14,12.54-.38,25.45-1.14,36.47-2.28,85.86,80.16,157.66,175.89,211.22,282.27Z"/>
    <path class="st4" d="M2763.04,3164.96c0,44.07-3.8,87.38-11.4,129.55l-60.78-60.41-208.19,20.89-11.4-9.5c4.94-26.21,7.22-53.18,7.22-80.54,0-251.11-203.63-455.12-455.12-455.12s-454.36,203.25-455.12,453.98l-7.98,7.6-41.79-20.9-31.15,31.53-31.15-36.47-93.84,93.83-36.47-10.64-37.99,14.06c-2.66-25.45-4.18-51.67-4.18-77.88,0-408.39,331.27-739.66,739.67-739.66s739.66,331.27,739.66,739.66Z"/>
    <path class="st1" d="M2478.49,3164.96c0,27.35-2.28,54.33-7.22,80.54l-51.29-42.55-41.79,20.52-244.66-213.5-72.94,36.47-109.41-99.15-161.46,83.58-52.43-26.21-169.06,159.18c.76-250.74,204.01-453.98,455.12-453.98s455.12,204.01,455.12,455.12Z"/>
    <polygon class="st3" points="2937.03 3353.39 2937.03 3467.74 1109.71 3470.02 1109.71 3351.49 1226.72 3265.26 1325.87 3228.79 1362.34 3239.42 1456.18 3145.59 1487.33 3182.06 1518.48 3150.53 1560.27 3171.42 1737.31 3004.65 1789.73 3030.86 1951.19 2947.28 2060.6 3046.43 2133.54 3009.96 2378.2 3223.47 2419.99 3202.95 2482.67 3255 2690.86 3234.1 2753.54 3296.41 2826.48 3312.36 2937.03 3353.39"/>
    <path class="st0" d="M1763.13,3275.02c-18.68-8.92-34.91-26.54-52.18-38.14-18.84-12.65-38.53-24.06-58.88-34.11-11.24-5.55-24.28-12.85-25.38-25.34-.65-7.34,3.38-14.43,8.75-19.47,5.37-5.04,12.02-8.47,18.35-12.23,18.18-10.79,34.42-24.85,47.69-41.31,2.94-3.65,5.82-7.49,9.72-10.09,3.9-2.61,9.15-3.76,13.31-1.6,5.16,2.68,6.84,9.29,6.84,15.11,0,5.82-1.1,11.83.75,17.34,2.32,6.94,8.8,11.6,15.29,14.98,6.49,3.38,13.53,6.09,18.78,11.18,9.33,9.06,10.83,23.23,15.72,35.28,5.73,14.09,16.33,25.53,25.3,37.81,6.88,9.43,13.19,20.14,14.88,31.88,1.8,12.5,3.93,23.3,11.93,33.85,3.9,5.14,8.83,9.53,12.05,15.12,3.22,5.59,4.37,13.12.45,18.25-5.11,6.69-15.31,5.76-23.5,3.79-12.15-2.92-24.37-6.8-34.34-14.32-6.77-5.1-12.46-12.12-15.23-20.2-2.59-7.57-.28-16.03-10.32-17.78"/>
    <path class="st0" d="M2240.34,3176.21c3.85,5.12,5.86,11.21-1.23,14.65-6.26,3.04-13.86.59-19.66-3.25-5.8-3.84-10.71-9.01-16.9-12.18-14.15-7.24-31.81-2.3-44.84,6.8-13.03,9.1-23,21.86-34.88,32.42-25.69,22.84-59.91,34.76-94.2,37.15-34.29,2.39-68.72-4.25-101.35-15.05-8.61-2.85-17.38-6.14-24.03-12.31-6.65-6.17-10.75-15.92-7.83-24.51,4.09-12.06,18.61-16.07,30.45-20.77,14.45-5.73,27.5-14.96,37.72-26.68,6.76-7.74,14.07-17.45,24.34-17,11.22.49,17.57,12.59,25.97,20.04,13.2,11.71,33.35,12.09,50.1,6.52s31.29-16.1,46.7-24.69c15.41-8.59,32.95-15.45,50.36-12.59,13.04,2.14,23.57,10.82,34.4,17.73,13.2,8.41,26.25,17.09,38.38,27.01,1.99,1.62,4.5,4.03,6.51,6.7Z"/>
    <path class="st0" d="M1909.72,3110.53c-12.54,1.69-24.46-2.31-36-10.23-17.69-12.23-34.85-25.31-54.23-35-4.54-2.23-8.92-5.23-7.85-11.23.85-4.38,4.62-6.77,8.69-7.92,18.15-5.08,36.31-9.15,53.16-18.77,10-5.62,21.69.77,24.85,13.62,4.62,19,14.31,32.62,30.92,42.46,6.15,3.69,12.15,10,8.38,18.77-3,7.15-9.77,8.15-16.69,8.31h-11.23"/>
    <path class="st0" d="M2589.47,3364.57c1.15,1.5,3.3,2.48,6.81,2.71,4.01.26,7.86-1.39,11.66-2.71,22.43-7.78,40.2-.2,62.37,2.53,6.72.83,43.75,3.89,44.57-7.42.53-7.37-31.43-20.57-37.25-24.14-13.58-8.33-35.29-25.14-51.39-25.18-15.68-.03-20.59,14.63-25.98,26.58-2.43,5.4-15.73,21.2-10.79,27.62Z"/>
    <path class="st0" d="M1438.68,3260c-1.1.21-2.23.27-3.38.12-4.4-.57-7.6-3.16-12.02-2.27-4.81.97-9.87,5.37-13.79,8.11-6.07,4.24-13.48,9.17-21.37,9.89-8.06.73-14.37-7.13-21.52-5.75-2.42.47-4.89.59-7.41.26-6.73-.88-12.8-4.96-19.58-5.34-6.65-.37-12.92,2.85-18.8,5.99-26.16,13.96-52.3,28.03-77.44,43.79-25.1,15.74-47.67,34.3-71.2,52.08-8.36,6.32-15.21,12.66-4.08,19.83,6.48,4.18,14.93,5.75,22.38,7.22,17.95,3.54,35.89,7.09,53.84,10.63,19.33,3.81,39.91,7.54,58.26.38,7.43-2.9,14.62-8.12,16.83-15.78,2.32-8.06-1.36-16.47-2.47-24.78-1.75-13.06,3.36-26.85,13.19-35.62,11.1-9.89,22.74-12.64,37.47-10.71,14.36,1.89,27.42,9.12,41.88,3.48,3.39-1.32,6.67-3.71,7.68-7.2,1.06-3.68-.62-7.52-1.13-11.31-.8-5.96,1.53-12.25,6.02-16.25,5.37-4.79,13.25-6.22,18.16-11.48,2.04-2.18,3.42-4.89,5.24-7.26,2.81-3.65-1.73-8.99-6.76-8.01Z"/>
    <g>
      <path class="st0" d="M1408.08,2674.91h318.95v66.96h-318.95v-66.96Z"/>
      <path class="st0" d="M1408.08,2621.08v-98.39c0-118.01,80.65-156.75,159.94-156.75s159.01,40.55,159.01,158.56v96.57h-318.95ZM1660.06,2525.4c0-77.43-57.43-92.93-94.79-92.93s-90.23,14.58-90.23,91.12v30.53h185.02v-28.72Z"/>
      <path class="st0" d="M1727.03,2351.18l-318.95-123.47v-66.52l318.95-123.47v68.34l-67.45,25.97v124.84l67.45,25.97v68.34ZM1593.54,2230.9v-72.9l-94.79,36.47,94.79,36.43Z"/>
      <path class="st0" d="M1408.08,1937.74h128.03v-113.9h-128.03v-66.52h318.95v66.52h-124.39v113.9h124.39v66.96h-318.95v-66.96Z"/>
      <path class="st0" d="M1403.52,1557.58c0-89.3,74.27-158.53,166.32-158.53s161.75,69.23,161.75,158.53-72.46,157.19-161.75,157.19-166.32-67.86-166.32-157.19ZM1569.84,1648.26c53.31,0,95.68-38.25,95.68-90.67s-42.37-92.01-95.68-92.01c-56.06,0-100.24,39.62-100.24,92.01s44.19,90.67,100.24,90.67Z"/>
    </g>
  </g>
</svg>